<svg id="Layer_1" data-name="Layer 1" xmlns="http://www.w3.org/2000/svg" viewBox="0 0 253.53 35.23"><defs><style>.cls-1{isolation:isolate;}.cls-2{fill:#fff;}.cls-3{fill:#eb2053;}.cls-4{fill:none;stroke:#ede3f0;}</style></defs><g class="cls-1"><path class="cls-2" d="M143.37,23.11V13.66h-3.61V12H149v1.65H145.4v9.45Z"/><path class="cls-2" d="M159.56,23.11h-2.12L156,19.41a1.24,1.24,0,0,0-.58-.71,2.13,2.13,0,0,0-1-.21h-2v4.62h-2V12h4.76a4.34,4.34,0,0,1,2.86.83,2.91,2.91,0,0,1,1,2.37,3,3,0,0,1-.59,1.87,3.13,3.13,0,0,1-1.66,1.1,2,2,0,0,1,1.42,1.38Zm-4.67-6.17a2.78,2.78,0,0,0,1.69-.42,1.54,1.54,0,0,0,.54-1.28,1.52,1.52,0,0,0-.53-1.26,2.85,2.85,0,0,0-1.7-.41h-2.51v3.37Z"/><path class="cls-2" d="M161.36,23.11V12h2v11.1Z"/><path class="cls-2" d="M165.78,12h4.81a4.09,4.09,0,0,1,2.79.87,2.93,2.93,0,0,1,1,2.36,3,3,0,0,1-1,2.37,4.13,4.13,0,0,1-2.79.87h-2.8v4.63h-2Zm4.58,4.91a2.48,2.48,0,0,0,1.58-.43,1.48,1.48,0,0,0,.54-1.24A1.51,1.51,0,0,0,172,14a2.45,2.45,0,0,0-1.59-.43h-2.57v3.35Z"/><path class="cls-2" d="M183,23.11V13.66h-3.61V12h9.27v1.65h-3.63v9.45Z"/><path class="cls-2" d="M199.21,23.11h-2.12l-1.41-3.7a1.24,1.24,0,0,0-.58-.71,2.15,2.15,0,0,0-1-.21h-2v4.62h-2V12h4.75a4.35,4.35,0,0,1,2.87.83,2.9,2.9,0,0,1,1,2.37,3,3,0,0,1-.58,1.87,3.13,3.13,0,0,1-1.66,1.1,2,2,0,0,1,1.42,1.38Zm-4.66-6.17a2.78,2.78,0,0,0,1.69-.42,1.54,1.54,0,0,0,.54-1.28,1.5,1.5,0,0,0-.54-1.26,2.8,2.8,0,0,0-1.69-.41H192v3.37Z"/><path class="cls-2" d="M209.36,23.11l-1.1-2.6h-5.43l-1.12,2.6h-2l5-11.1h1.64l5,11.1ZM203.5,19h4.09l-2.05-4.76Z"/><path class="cls-2" d="M214.41,22.55a4.63,4.63,0,0,1-1.88-2,6.53,6.53,0,0,1-.66-3,6.5,6.5,0,0,1,.66-3,4.67,4.67,0,0,1,1.88-2,5.71,5.71,0,0,1,2.86-.69,6.4,6.4,0,0,1,2.11.35,4.49,4.49,0,0,1,1.64,1l-.65,1.47a5.19,5.19,0,0,0-1.49-.88,4.56,4.56,0,0,0-1.58-.27,3.07,3.07,0,0,0-2.49,1,4.52,4.52,0,0,0-.88,3,4.63,4.63,0,0,0,.87,3,3.08,3.08,0,0,0,2.5,1.05,4.56,4.56,0,0,0,1.58-.27,5.43,5.43,0,0,0,1.49-.88l.65,1.46a4.37,4.37,0,0,1-1.64,1,6.4,6.4,0,0,1-2.11.35A5.61,5.61,0,0,1,214.41,22.55Z"/><path class="cls-2" d="M232.54,23.11h-2.46l-5.16-5.19v5.19h-2V12h2v5l5-5h2.41l-5.39,5.33Z"/><path class="cls-2" d="M233.29,23.11V12h7.42V13.6h-5.45v3.07h5.13v1.59h-5.13v3.26h5.45v1.59Z"/><path class="cls-2" d="M251.7,23.11h-2.12l-1.42-3.7a1.19,1.19,0,0,0-.57-.71,2.15,2.15,0,0,0-1-.21h-2v4.62h-2V12h4.75a4.35,4.35,0,0,1,2.87.83,2.9,2.9,0,0,1,1,2.37,3,3,0,0,1-.58,1.87,3.13,3.13,0,0,1-1.66,1.1,2,2,0,0,1,1.42,1.38ZM247,16.94a2.78,2.78,0,0,0,1.69-.42,1.54,1.54,0,0,0,.54-1.28,1.5,1.5,0,0,0-.54-1.26,2.82,2.82,0,0,0-1.69-.41h-2.51v3.37Z"/></g><g id="Group_3741" data-name="Group 3741"><path id="Path_1" data-name="Path 1" class="cls-2" d="M111.12,17.27l.18-.17q1.68-1.82,3.39-3.62a.48.48,0,0,1,.29-.17h2.34a.66.66,0,0,1-.12.17c-1.08,1.11-2.15,2.21-3.24,3.31a.31.31,0,0,0-.09.42l0,.05c1.14,1.63,2.27,3.27,3.41,4.91l.15.24-.23,0h-1.91a.38.38,0,0,1-.36-.19q-1.23-1.78-2.47-3.55l-.18-.24-.5.56a3.75,3.75,0,0,1-.44.45.9.9,0,0,0-.34.85c0,.61,0,1.24,0,1.85,0,.19-.06.27-.26.26-.52,0-1,0-1.55,0-.19,0-.27-.05-.27-.26V10c0-.19.08-.24.25-.24h1.53c.23,0,.3.07.3.29,0,1.82,0,3.64,0,5.46v1.66Z"/><path id="Path_2" data-name="Path 2" class="cls-2" d="M94.32,21.12c-.22.24-.44.5-.68.72A3.31,3.31,0,0,1,89,21.43a3.18,3.18,0,0,1-.27-.37,4,4,0,0,1-.43-1.86c0-1.86,0-3.73,0-5.6,0-.28,0-.3.31-.3h1.46c.22,0,.3.06.3.29,0,1.61,0,3.22,0,4.82a3,3,0,0,0,.25,1.29,1.77,1.77,0,0,0,1.8,1,2,2,0,0,0,2-2v-.17c0-1.64,0-3.27,0-4.91,0-.35,0-.37.38-.37h1.36c.32,0,.33,0,.33.33v8.56c0,.17-.06.24-.23.24H94.62c-.17,0-.22-.07-.22-.23,0-.34,0-.69,0-1Z"/><path id="Path_3" data-name="Path 3" class="cls-2" d="M74.5,17.35V12.59c0-.31,0-.33-.34-.33H70.93c-.18,0-.26,0-.26-.25,0-.47,0-.95,0-1.42,0-.18,0-.26.24-.25h9.32c.18,0,.24.06.24.24,0,.48,0,.95,0,1.43,0,.2-.06.26-.26.26H77c-.38,0-.41,0-.41.42,0,3.12,0,6.23,0,9.34,0,.4,0,.4-.4.4H74.85c-.36,0-.36,0-.36-.37Z"/><path id="Path_4" data-name="Path 4" class="cls-3" d="M18.68,25.3a.9.9,0,0,1-.49.75.81.81,0,0,1-.88-.08,1.54,1.54,0,0,1-.19-.17L1.56,10.25a.9.9,0,0,1-.33-.72.77.77,0,0,1,.47-.7.78.78,0,0,1,.86.08,2,2,0,0,1,.26.24L18.07,24.4a2.31,2.31,0,0,1,.34.36A2.73,2.73,0,0,1,18.68,25.3Z"/><path id="Path_5" data-name="Path 5" class="cls-2" d="M98.61,18.15a5,5,0,0,1,2-4.15,4.88,4.88,0,0,1,6.23.46c.14.15.17.26,0,.41-.33.33-.64.67-1,1-.12.13-.2.13-.33,0a3.06,3.06,0,0,0-1.62-.93,2.66,2.66,0,0,0-3.13,2.08.59.59,0,0,0,0,.13,3.15,3.15,0,0,0,.62,2.68,2.66,2.66,0,0,0,3.36.63,4.87,4.87,0,0,0,.87-.64c.14-.12.23-.14.37,0a12.18,12.18,0,0,0,.89.87c.18.16.14.27,0,.42A4.81,4.81,0,0,1,98.72,19,7.5,7.5,0,0,1,98.61,18.15Z"/><path id="Path_6" data-name="Path 6" class="cls-2" d="M39.18,15.11a3.22,3.22,0,0,1,3-1.71A3.14,3.14,0,0,1,45,15.26c.27-.32.51-.65.79-.93a3.49,3.49,0,0,1,4.94.16l.21.24A4,4,0,0,1,51.61,17c0,1.7,0,3.4,0,5.11,0,.29,0,.31-.33.31h-.21c-.22,0-.31-.12-.3-.33V21c0-1.37,0-2.75,0-4.12a2.86,2.86,0,0,0-.88-2.13A2.74,2.74,0,0,0,46,15.2a2.36,2.36,0,0,0-.28.42,3.66,3.66,0,0,0-.38,1.68v4.8c0,.17,0,.33-.24.33-.46,0-.56,0-.57-.33V19.3c0-.85,0-1.71,0-2.56A2.54,2.54,0,0,0,43,14.38a2.75,2.75,0,0,0-3.6,1.48l0,.08a3.68,3.68,0,0,0-.24,1.23c0,1.45,0,2.9,0,4.35,0,.15,0,.3,0,.45s0,.38-.09.4a1.94,1.94,0,0,1-.59,0s-.1-.1-.12-.15a1,1,0,0,1,0-.24V14c0-.31,0-.36.27-.36.47,0,.53,0,.54.35v.9c0,.07,0,.15,0,.22Z"/><path id="Path_7" data-name="Path 7" class="cls-2" d="M83.39,15.16c.11-.18.22-.36.34-.54a3.09,3.09,0,0,1,2.44-1.5c.36,0,.38,0,.38.34v1.62c0,.16,0,.24-.22.25a2.89,2.89,0,0,0-2.94,2.82c-.06.74,0,1.49,0,2.23s0,1.21,0,1.81c0,.17,0,.24-.23.24H81.46c-.15,0-.21-.07-.2-.21V13.63c0-.34,0-.33.33-.33h1.49c.19,0,.26.06.26.26,0,.53,0,1.06,0,1.59Z"/><path id="Path_8" data-name="Path 8" class="cls-2" d="M26.63,20.67l.56-.65a13.48,13.48,0,0,0,1.39,1,5.23,5.23,0,0,0,4.41.52,2.29,2.29,0,0,0,1.6-2.66,2,2,0,0,0-1.26-1.48,12.08,12.08,0,0,0-2.45-.71,9.8,9.8,0,0,1-2.21-.76A2.91,2.91,0,0,1,27.45,12a3,3,0,0,1,.7-.88,4.25,4.25,0,0,1,2.51-.95,6,6,0,0,1,4.28,1.3l.19.16a5.77,5.77,0,0,0-.39.51c-.12.17-.2.15-.34,0a4.9,4.9,0,0,0-1.74-1,4.64,4.64,0,0,0-3.2.05A2.19,2.19,0,0,0,28,13.36a1.91,1.91,0,0,0,1,1.73,9,9,0,0,0,2.58.85,9.83,9.83,0,0,1,2.35.78,3,3,0,0,1,.13,5.16,4.88,4.88,0,0,1-2.69.7,6.83,6.83,0,0,1-4.62-1.81Z"/><path id="Path_9" data-name="Path 9" class="cls-3" d="M11,33a.91.91,0,0,1-.66-.32L8.38,30.78Q5,27.39,1.59,24a.9.9,0,0,1-.32-1,.83.83,0,0,1,1.06-.52l.19.1.25.22,8.68,8.68a.84.84,0,0,1,.26,1A.81.81,0,0,1,11,33Z"/><path id="Path_10" data-name="Path 10" class="cls-3" d="M18.63,11.59a.79.79,0,0,1-.49.78.76.76,0,0,1-.86-.13l-.43-.4L8.47,3.46a1,1,0,0,1-.38-.75A.82.82,0,0,1,8.55,2,.76.76,0,0,1,9.39,2a2.18,2.18,0,0,1,.28.25l8.58,8.57A1,1,0,0,1,18.63,11.59Z"/><path id="Path_11" data-name="Path 11" class="cls-2" d="M60.74,21l-.37.4a4.26,4.26,0,0,1-5.37.43,2.6,2.6,0,0,1-.41-3.67,2.37,2.37,0,0,1,.59-.55A4.71,4.71,0,0,1,57.43,17a11,11,0,0,1,3.08.29c.26.07.29,0,.29-.22a2.82,2.82,0,0,0-.49-1.78,2.5,2.5,0,0,0-1.85-1,5.42,5.42,0,0,0-3,.5c-.11.05-.33.1-.35.06a2,2,0,0,1-.21-.58s.09-.12.16-.15a6.27,6.27,0,0,1,4.26-.46,2.91,2.91,0,0,1,2.26,2.93c0,1.87,0,3.73,0,5.6,0,.19-.07.26-.25.24a.24.24,0,0,0-.12,0c-.39,0-.43-.05-.43-.43v-.94Zm-3,.85a3.92,3.92,0,0,0,2.12-.8,2.12,2.12,0,0,0,.9-1.4c.06-.42,0-.86.07-1.29A.3.3,0,0,0,60.6,18h-.06a10.47,10.47,0,0,0-3.3-.28,4,4,0,0,0-1.24.32,1.9,1.9,0,0,0-.09,3.42,3.7,3.7,0,0,0,1.82.4Z"/><path id="Path_12" data-name="Path 12" class="cls-3" d="M9.35,11a3,3,0,0,1-.55-.32L4.94,6.78a.85.85,0,0,1,0-1.18.84.84,0,0,1,1.18,0l0,0L7.93,7.39,10,9.46a.79.79,0,0,1,.18.93.82.82,0,0,1-.78.5Z"/><path id="Path_13" data-name="Path 13" class="cls-2" d="M65.55,16l.22-.34a4.11,4.11,0,0,1,2.48-2,6,6,0,0,1,.93-.14c.16,0,.23,0,.22.21s0,.33,0,.49-.08.22-.23.24a3.63,3.63,0,0,0-3.54,3,8.13,8.13,0,0,0-.14,1.47c0,1.07,0,2.13,0,3.2,0,.21,0,.29-.28.28-.57,0-.56,0-.56-.62V14a.74.74,0,0,1,0-.21c0-.06.08-.16.13-.16a2.44,2.44,0,0,1,.54,0c.18,0,.17.17.17.31,0,.6,0,1.2,0,1.81a1.62,1.62,0,0,0,0,.22Z"/><path id="Path_14" data-name="Path 14" class="cls-3" d="M14.4,29.58a.83.83,0,0,1-.63-.27L9.92,25.47a.87.87,0,0,1-.25-.88.82.82,0,0,1,.65-.58.84.84,0,0,1,.8.3l2.79,2.79c.37.37.74.73,1.09,1.11A.82.82,0,0,1,15,29.36a.88.88,0,0,1-.34.19Z"/></g><line id="Line_1172" data-name="Line 1172" class="cls-4" x1="128.81" y1="8.21" x2="128.81" y2="25.8"/></svg>